<?xml version="1.0" standalone="no"?>
<!DOCTYPE svg PUBLIC "-//W3C//DTD SVG 20010904//EN"
 "http://www.w3.org/TR/2001/REC-SVG-20010904/DTD/svg10.dtd">
<svg version="1.0" xmlns="http://www.w3.org/2000/svg"
 width="300.000000pt" height="300.000000pt" viewBox="0 0 300.000000 300.000000"
 preserveAspectRatio="xMidYMid meet">
<metadata>
Created by potrace 1.14, written by Peter Selinger 2001-2017
</metadata>
<g transform="translate(0.000000,300.000000) scale(0.100000,-0.100000)"
fill="#000000" stroke="none">
<path d="M2248 2961 c-12 -15 -104 -135 -203 -266 -99 -130 -205 -269 -235
-309 -31 -39 -119 -154 -196 -256 -77 -102 -187 -246 -243 -320 -57 -74 -148
-193 -202 -265 -54 -71 -147 -193 -206 -270 -58 -77 -250 -329 -426 -560 -176
-231 -369 -484 -429 -563 l-109 -142 367 2 368 3 34 45 c18 25 41 54 50 65 10
11 87 113 172 225 85 113 159 210 165 217 5 6 35 45 65 87 30 41 57 75 60 75
3 0 32 -36 65 -80 33 -45 155 -205 271 -357 l211 -277 367 -3 367 -2 -28 37
c-15 21 -30 40 -33 43 -3 3 -68 88 -145 190 -76 102 -143 190 -148 195 -89
108 -556 733 -553 741 3 7 47 68 99 135 175 230 461 607 562 739 55 73 128
169 162 214 35 44 72 92 82 106 10 14 59 77 107 142 49 64 144 189 212 277
l123 161 -365 0 -364 0 -24 -29z"/>
<path d="M8 2405 c5 -9 84 -114 105 -140 4 -5 43 -57 87 -115 44 -58 83 -109
87 -115 5 -5 87 -113 183 -240 245 -324 263 -346 271 -343 9 3 359 460 359
469 0 5 -280 379 -350 468 l-20 25 -364 0 c-240 1 -362 -2 -358 -9z"/>
</g>
</svg>
